<svg height="512" viewBox="0 0 64 64" width="512" xmlns="http://www.w3.org/2000/svg"><g id="Performance"><circle cx="58" cy="58" fill="#ffde55" r="3"/><path d="m61 31a7 7 0 0 1 -7 7h-44a7 7 0 0 1 0-14h.84a9.994 9.994 0 0 1 17.3-9.8 12.991 12.991 0 1 1 23.09 9.8h2.77a7 7 0 0 1 7 7z" fill="#57a4ff"/><path d="m61 31a7 7 0 0 1 -7 7h-44a6.73 6.73 0 0 1 -1.91-.27c8.59-.81 22.33-3.86 33.91-14.73a53.5 53.5 0 0 0 10.32-13.39 12.961 12.961 0 0 1 -1.09 14.39h2.77a7 7 0 0 1 7 7z" fill="#006df0"/><rect fill="#00d7df" height="42" rx="2" width="24" x="20" y="19"/><path d="m44 21v38a2.006 2.006 0 0 1 -2 2h-4a2.006 2.006 0 0 0 2-2v-38a2.006 2.006 0 0 0 -2-2h4a2.006 2.006 0 0 1 2 2z" fill="#009698"/><path d="m40 19v2a2.006 2.006 0 0 1 -2 2h-12a2.006 2.006 0 0 1 -2-2v-2z" fill="#ffde55"/><path d="m34 50v2h-4v-2-2h4z" fill="#ff7956"/><circle cx="6" cy="58" fill="#ffde55" r="3"/><path d="m58 54a4 4 0 0 0 -3.86 3h-2.14a1 1 0 0 1 -1-1v-17h3a8 8 0 0 0 0-16h-.88a13.994 13.994 0 0 0 -12.12-21 14.041 14.041 0 0 0 -13.41 10.04 11 11 0 0 0 -18.17 10.98 8 8 0 0 0 .58 15.98h3v17a1 1 0 0 1 -1 1h-2.14a4 4 0 1 0 0 2h2.14a3.009 3.009 0 0 0 3-3v-17h4v20a3.009 3.009 0 0 0 3 3h20a3.009 3.009 0 0 0 3-3v-20h4v17a3.009 3.009 0 0 0 3 3h2.14a3.994 3.994 0 1 0 3.86-5zm-52 6a2 2 0 1 1 2-2 2.006 2.006 0 0 1 -2 2zm37-1a1 1 0 0 1 -1 1h-20a1 1 0 0 1 -1-1v-38a1 1 0 0 1 1-1h1v1a3.009 3.009 0 0 0 3 3h12a3.009 3.009 0 0 0 3-3v-1h1a1 1 0 0 1 1 1zm-18-38v-1h14v1a1 1 0 0 1 -1 1h-12a1 1 0 0 1 -1-1zm20 16v-16a3.009 3.009 0 0 0 -3-3h-20a3.009 3.009 0 0 0 -3 3v16h-9a6 6 0 0 1 0-12h.84a1.013 1.013 0 0 0 .84-.45 1.034 1.034 0 0 0 .08-.95 8.747 8.747 0 0 1 -.76-3.6 9 9 0 0 1 16.33-5.22.991.991 0 0 0 1.05.39 1 1 0 0 0 .75-.83 11.992 11.992 0 0 1 23.87 1.66 11.818 11.818 0 0 1 -2.56 7.38 1 1 0 0 0 .79 1.62h2.77a6 6 0 0 1 0 12zm13 23a2 2 0 1 1 2-2 2.006 2.006 0 0 1 -2 2z"/><path d="m38.275 34.561 1.514-1.947-1.578-1.228-1.517 1.95a8.981 8.981 0 0 0 -13.694 7.664h2a6.989 6.989 0 0 1 10.46-6.077l-4.249 5.463 1.578 1.228 4.248-5.462a6.967 6.967 0 0 1 1.963 4.848h2a8.968 8.968 0 0 0 -2.725-6.439z"/><path d="m34 47h-4a1 1 0 0 0 -1 1v4a1 1 0 0 0 1 1h4a1 1 0 0 0 1-1v-4a1 1 0 0 0 -1-1zm-1 4h-2v-2h2z"/><path d="m37 49h4v2h-4z"/><path d="m23 49h4v2h-4z"/></g></svg>